<?xml version="1.0" encoding="UTF-8" standalone="no"?>
<!DOCTYPE svg PUBLIC "-//W3C//DTD SVG 1.1//EN"
 "http://www.w3.org/Graphics/SVG/1.1/DTD/svg11.dtd">
<!-- Generated by graphviz version 2.40.1 (20161225.0304)
 -->
<!-- Title: snakemake_dag Pages: 1 -->
<svg width="1399pt" height="404pt"
 viewBox="0.00 0.00 1399.38 404.00" xmlns="http://www.w3.org/2000/svg" xmlns:xlink="http://www.w3.org/1999/xlink">
<g id="graph0" class="graph" transform="scale(1 1) rotate(0) translate(4 400)">
<title>snakemake_dag</title>
<polygon fill="#ffffff" stroke="transparent" points="-4,4 -4,-400 1395.3765,-400 1395.3765,4 -4,4"/>
<!-- 0 -->
<g id="node1" class="node">
<title>0</title>
<path fill="none" stroke="#afd856" stroke-width="2" d="M726.9653,-36C726.9653,-36 696.9653,-36 696.9653,-36 690.9653,-36 684.9653,-30 684.9653,-24 684.9653,-24 684.9653,-12 684.9653,-12 684.9653,-6 690.9653,0 696.9653,0 696.9653,0 726.9653,0 726.9653,0 732.9653,0 738.9653,-6 738.9653,-12 738.9653,-12 738.9653,-24 738.9653,-24 738.9653,-30 732.9653,-36 726.9653,-36"/>
<text text-anchor="middle" x="711.9653" y="-15" font-family="sans" font-size="10.00" fill="#000000">all</text>
</g>
<!-- 1 -->
<g id="node2" class="node">
<title>1</title>
<path fill="none" stroke="#59d856" stroke-width="2" d="M748.0716,-108C748.0716,-108 675.8591,-108 675.8591,-108 669.8591,-108 663.8591,-102 663.8591,-96 663.8591,-96 663.8591,-84 663.8591,-84 663.8591,-78 669.8591,-72 675.8591,-72 675.8591,-72 748.0716,-72 748.0716,-72 754.0716,-72 760.0716,-78 760.0716,-84 760.0716,-84 760.0716,-96 760.0716,-96 760.0716,-102 754.0716,-108 748.0716,-108"/>
<text text-anchor="middle" x="711.9653" y="-87" font-family="sans" font-size="10.00" fill="#000000">merge_metaphlan</text>
</g>
<!-- 1&#45;&gt;0 -->
<g id="edge1" class="edge">
<title>1&#45;&gt;0</title>
<path fill="none" stroke="#c0c0c0" stroke-width="2" d="M711.9653,-71.8314C711.9653,-64.131 711.9653,-54.9743 711.9653,-46.4166"/>
<polygon fill="#c0c0c0" stroke="#c0c0c0" stroke-width="2" points="715.4654,-46.4132 711.9653,-36.4133 708.4654,-46.4133 715.4654,-46.4132"/>
</g>
<!-- 2 -->
<g id="node3" class="node">
<title>2</title>
<path fill="none" stroke="#56a9d8" stroke-width="2" d="M190.1653,-180C190.1653,-180 151.7654,-180 151.7654,-180 145.7654,-180 139.7654,-174 139.7654,-168 139.7654,-168 139.7654,-156 139.7654,-156 139.7654,-150 145.7654,-144 151.7654,-144 151.7654,-144 190.1653,-144 190.1653,-144 196.1653,-144 202.1653,-150 202.1653,-156 202.1653,-156 202.1653,-168 202.1653,-168 202.1653,-174 196.1653,-180 190.1653,-180"/>
<text text-anchor="middle" x="170.9653" y="-159" font-family="sans" font-size="10.00" fill="#000000">metaphlan</text>
</g>
<!-- 2&#45;&gt;1 -->
<g id="edge2" class="edge">
<title>2&#45;&gt;1</title>
<path fill="none" stroke="#c0c0c0" stroke-width="2" d="M202.5692,-154.9624C219.5271,-151.3498 240.8206,-147.0744 259.9653,-144 400.5574,-121.4223 567.1474,-103.8766 653.4976,-95.4636"/>
<polygon fill="#c0c0c0" stroke="#c0c0c0" stroke-width="2" points="654.0071,-98.9307 663.6232,-94.4831 653.3324,-91.9633 654.0071,-98.9307"/>
</g>
<!-- 3 -->
<g id="node4" class="node">
<title>3</title>
<path fill="none" stroke="#d8ac56" stroke-width="2" stroke-dasharray="5,2" d="M179.9653,-252C179.9653,-252 149.9653,-252 149.9653,-252 143.9653,-252 137.9653,-246 137.9653,-240 137.9653,-240 137.9653,-228 137.9653,-228 137.9653,-222 143.9653,-216 149.9653,-216 149.9653,-216 179.9653,-216 179.9653,-216 185.9653,-216 191.9653,-222 191.9653,-228 191.9653,-228 191.9653,-240 191.9653,-240 191.9653,-246 185.9653,-252 179.9653,-252"/>
<text text-anchor="middle" x="164.9653" y="-231" font-family="sans" font-size="10.00" fill="#000000">merge</text>
</g>
<!-- 3&#45;&gt;2 -->
<g id="edge14" class="edge">
<title>3&#45;&gt;2</title>
<path fill="none" stroke="#c0c0c0" stroke-width="2" d="M166.4794,-215.8314C167.1211,-208.131 167.8841,-198.9743 168.5973,-190.4166"/>
<polygon fill="#c0c0c0" stroke="#c0c0c0" stroke-width="2" points="172.0883,-190.6694 169.4309,-180.4133 165.1124,-190.088 172.0883,-190.6694"/>
</g>
<!-- 4 -->
<g id="node5" class="node">
<title>4</title>
<path fill="none" stroke="#d85656" stroke-width="2" stroke-dasharray="5,2" d="M87.9653,-324C87.9653,-324 57.9653,-324 57.9653,-324 51.9653,-324 45.9653,-318 45.9653,-312 45.9653,-312 45.9653,-300 45.9653,-300 45.9653,-294 51.9653,-288 57.9653,-288 57.9653,-288 87.9653,-288 87.9653,-288 93.9653,-288 99.9653,-294 99.9653,-300 99.9653,-300 99.9653,-312 99.9653,-312 99.9653,-318 93.9653,-324 87.9653,-324"/>
<text text-anchor="middle" x="72.9653" y="-303" font-family="sans" font-size="10.00" fill="#000000">hostfilter</text>
</g>
<!-- 4&#45;&gt;3 -->
<g id="edge15" class="edge">
<title>4&#45;&gt;3</title>
<path fill="none" stroke="#c0c0c0" stroke-width="2" d="M96.1808,-287.8314C107.5124,-278.9632 121.3117,-268.1637 133.568,-258.5718"/>
<polygon fill="#c0c0c0" stroke="#c0c0c0" stroke-width="2" points="136.0393,-261.0822 141.7573,-252.1628 131.7251,-255.5697 136.0393,-261.0822"/>
</g>
<!-- 5 -->
<g id="node6" class="node">
<title>5</title>
<path fill="none" stroke="#56d8a9" stroke-width="2" stroke-dasharray="5,2" d="M87.896,-396C87.896,-396 12.0346,-396 12.0346,-396 6.0346,-396 .0346,-390 .0346,-384 .0346,-384 .0346,-372 .0346,-372 .0346,-366 6.0346,-360 12.0346,-360 12.0346,-360 87.896,-360 87.896,-360 93.896,-360 99.896,-366 99.896,-372 99.896,-372 99.896,-384 99.896,-384 99.896,-390 93.896,-396 87.896,-396"/>
<text text-anchor="middle" x="49.9653" y="-380" font-family="sans" font-size="10.00" fill="#000000">trim</text>
<text text-anchor="middle" x="49.9653" y="-370" font-family="sans" font-size="10.00" fill="#000000">sample: Sample_A</text>
</g>
<!-- 5&#45;&gt;4 -->
<g id="edge16" class="edge">
<title>5&#45;&gt;4</title>
<path fill="none" stroke="#c0c0c0" stroke-width="2" d="M55.7692,-359.8314C58.2561,-352.0463 61.2184,-342.7729 63.9778,-334.1347"/>
<polygon fill="#c0c0c0" stroke="#c0c0c0" stroke-width="2" points="67.3743,-335.0041 67.0833,-324.4133 60.7063,-332.874 67.3743,-335.0041"/>
</g>
<!-- 6 -->
<g id="node7" class="node">
<title>6</title>
<path fill="none" stroke="#56a9d8" stroke-width="2" d="M319.1653,-180C319.1653,-180 280.7654,-180 280.7654,-180 274.7654,-180 268.7654,-174 268.7654,-168 268.7654,-168 268.7654,-156 268.7654,-156 268.7654,-150 274.7654,-144 280.7654,-144 280.7654,-144 319.1653,-144 319.1653,-144 325.1653,-144 331.1653,-150 331.1653,-156 331.1653,-156 331.1653,-168 331.1653,-168 331.1653,-174 325.1653,-180 319.1653,-180"/>
<text text-anchor="middle" x="299.9653" y="-159" font-family="sans" font-size="10.00" fill="#000000">metaphlan</text>
</g>
<!-- 6&#45;&gt;1 -->
<g id="edge3" class="edge">
<title>6&#45;&gt;1</title>
<path fill="none" stroke="#c0c0c0" stroke-width="2" d="M331.1917,-152.5636C341.841,-149.5567 353.8621,-146.3929 364.9653,-144 465.4477,-122.3447 584.0809,-105.7917 653.3763,-97.0129"/>
<polygon fill="#c0c0c0" stroke="#c0c0c0" stroke-width="2" points="654.163,-100.4417 663.6489,-95.7228 653.2906,-93.4963 654.163,-100.4417"/>
</g>
<!-- 7 -->
<g id="node8" class="node">
<title>7</title>
<path fill="none" stroke="#d8ac56" stroke-width="2" stroke-dasharray="5,2" d="M266.9653,-252C266.9653,-252 236.9653,-252 236.9653,-252 230.9653,-252 224.9653,-246 224.9653,-240 224.9653,-240 224.9653,-228 224.9653,-228 224.9653,-222 230.9653,-216 236.9653,-216 236.9653,-216 266.9653,-216 266.9653,-216 272.9653,-216 278.9653,-222 278.9653,-228 278.9653,-228 278.9653,-240 278.9653,-240 278.9653,-246 272.9653,-252 266.9653,-252"/>
<text text-anchor="middle" x="251.9653" y="-231" font-family="sans" font-size="10.00" fill="#000000">merge</text>
</g>
<!-- 7&#45;&gt;6 -->
<g id="edge17" class="edge">
<title>7&#45;&gt;6</title>
<path fill="none" stroke="#c0c0c0" stroke-width="2" d="M264.0778,-215.8314C269.4934,-207.7079 275.9895,-197.9637 281.9575,-189.0118"/>
<polygon fill="#c0c0c0" stroke="#c0c0c0" stroke-width="2" points="285.055,-190.6753 287.6898,-180.4133 279.2306,-186.7923 285.055,-190.6753"/>
</g>
<!-- 8 -->
<g id="node9" class="node">
<title>8</title>
<path fill="none" stroke="#d85656" stroke-width="2" stroke-dasharray="5,2" d="M205.9653,-324C205.9653,-324 175.9653,-324 175.9653,-324 169.9653,-324 163.9653,-318 163.9653,-312 163.9653,-312 163.9653,-300 163.9653,-300 163.9653,-294 169.9653,-288 175.9653,-288 175.9653,-288 205.9653,-288 205.9653,-288 211.9653,-288 217.9653,-294 217.9653,-300 217.9653,-300 217.9653,-312 217.9653,-312 217.9653,-318 211.9653,-324 205.9653,-324"/>
<text text-anchor="middle" x="190.9653" y="-303" font-family="sans" font-size="10.00" fill="#000000">hostfilter</text>
</g>
<!-- 8&#45;&gt;7 -->
<g id="edge18" class="edge">
<title>8&#45;&gt;7</title>
<path fill="none" stroke="#c0c0c0" stroke-width="2" d="M206.3582,-287.8314C213.4557,-279.454 222.0134,-269.3531 229.7893,-260.1749"/>
<polygon fill="#c0c0c0" stroke="#c0c0c0" stroke-width="2" points="232.5714,-262.3056 236.3652,-252.4133 227.2305,-257.7807 232.5714,-262.3056"/>
</g>
<!-- 9 -->
<g id="node10" class="node">
<title>9</title>
<path fill="none" stroke="#56d8a9" stroke-width="2" stroke-dasharray="5,2" d="M205.896,-396C205.896,-396 130.0346,-396 130.0346,-396 124.0346,-396 118.0346,-390 118.0346,-384 118.0346,-384 118.0346,-372 118.0346,-372 118.0346,-366 124.0346,-360 130.0346,-360 130.0346,-360 205.896,-360 205.896,-360 211.896,-360 217.896,-366 217.896,-372 217.896,-372 217.896,-384 217.896,-384 217.896,-390 211.896,-396 205.896,-396"/>
<text text-anchor="middle" x="167.9653" y="-380" font-family="sans" font-size="10.00" fill="#000000">trim</text>
<text text-anchor="middle" x="167.9653" y="-370" font-family="sans" font-size="10.00" fill="#000000">sample: Sample_B</text>
</g>
<!-- 9&#45;&gt;8 -->
<g id="edge19" class="edge">
<title>9&#45;&gt;8</title>
<path fill="none" stroke="#c0c0c0" stroke-width="2" d="M173.7692,-359.8314C176.2561,-352.0463 179.2184,-342.7729 181.9778,-334.1347"/>
<polygon fill="#c0c0c0" stroke="#c0c0c0" stroke-width="2" points="185.3743,-335.0041 185.0833,-324.4133 178.7063,-332.874 185.3743,-335.0041"/>
</g>
<!-- 10 -->
<g id="node11" class="node">
<title>10</title>
<path fill="none" stroke="#56a9d8" stroke-width="2" d="M424.1653,-180C424.1653,-180 385.7654,-180 385.7654,-180 379.7654,-180 373.7654,-174 373.7654,-168 373.7654,-168 373.7654,-156 373.7654,-156 373.7654,-150 379.7654,-144 385.7654,-144 385.7654,-144 424.1653,-144 424.1653,-144 430.1653,-144 436.1653,-150 436.1653,-156 436.1653,-156 436.1653,-168 436.1653,-168 436.1653,-174 430.1653,-180 424.1653,-180"/>
<text text-anchor="middle" x="404.9653" y="-159" font-family="sans" font-size="10.00" fill="#000000">metaphlan</text>
</g>
<!-- 10&#45;&gt;1 -->
<g id="edge4" class="edge">
<title>10&#45;&gt;1</title>
<path fill="none" stroke="#c0c0c0" stroke-width="2" d="M436.4452,-150.6285C443.4795,-148.2784 450.9382,-145.933 457.9653,-144 524.3901,-125.7279 602.0186,-110.0287 653.8069,-100.3415"/>
<polygon fill="#c0c0c0" stroke="#c0c0c0" stroke-width="2" points="654.6157,-103.7513 663.8091,-98.4852 653.3383,-96.8688 654.6157,-103.7513"/>
</g>
<!-- 11 -->
<g id="node12" class="node">
<title>11</title>
<path fill="none" stroke="#d8ac56" stroke-width="2" stroke-dasharray="5,2" d="M391.9653,-252C391.9653,-252 361.9653,-252 361.9653,-252 355.9653,-252 349.9653,-246 349.9653,-240 349.9653,-240 349.9653,-228 349.9653,-228 349.9653,-222 355.9653,-216 361.9653,-216 361.9653,-216 391.9653,-216 391.9653,-216 397.9653,-216 403.9653,-222 403.9653,-228 403.9653,-228 403.9653,-240 403.9653,-240 403.9653,-246 397.9653,-252 391.9653,-252"/>
<text text-anchor="middle" x="376.9653" y="-231" font-family="sans" font-size="10.00" fill="#000000">merge</text>
</g>
<!-- 11&#45;&gt;10 -->
<g id="edge20" class="edge">
<title>11&#45;&gt;10</title>
<path fill="none" stroke="#c0c0c0" stroke-width="2" d="M384.0309,-215.8314C387.0913,-207.9617 390.7432,-198.5712 394.1335,-189.8533"/>
<polygon fill="#c0c0c0" stroke="#c0c0c0" stroke-width="2" points="397.4421,-191.0019 397.8046,-180.4133 390.9181,-188.4647 397.4421,-191.0019"/>
</g>
<!-- 12 -->
<g id="node13" class="node">
<title>12</title>
<path fill="none" stroke="#d85656" stroke-width="2" stroke-dasharray="5,2" d="M323.9653,-324C323.9653,-324 293.9653,-324 293.9653,-324 287.9653,-324 281.9653,-318 281.9653,-312 281.9653,-312 281.9653,-300 281.9653,-300 281.9653,-294 287.9653,-288 293.9653,-288 293.9653,-288 323.9653,-288 323.9653,-288 329.9653,-288 335.9653,-294 335.9653,-300 335.9653,-300 335.9653,-312 335.9653,-312 335.9653,-318 329.9653,-324 323.9653,-324"/>
<text text-anchor="middle" x="308.9653" y="-303" font-family="sans" font-size="10.00" fill="#000000">hostfilter</text>
</g>
<!-- 12&#45;&gt;11 -->
<g id="edge21" class="edge">
<title>12&#45;&gt;11</title>
<path fill="none" stroke="#c0c0c0" stroke-width="2" d="M326.1246,-287.8314C334.1165,-279.3694 343.7691,-269.1489 352.507,-259.8971"/>
<polygon fill="#c0c0c0" stroke="#c0c0c0" stroke-width="2" points="355.2533,-262.0866 359.575,-252.4133 350.1642,-257.2802 355.2533,-262.0866"/>
</g>
<!-- 13 -->
<g id="node14" class="node">
<title>13</title>
<path fill="none" stroke="#56d8a9" stroke-width="2" stroke-dasharray="5,2" d="M324.4489,-396C324.4489,-396 247.4817,-396 247.4817,-396 241.4817,-396 235.4817,-390 235.4817,-384 235.4817,-384 235.4817,-372 235.4817,-372 235.4817,-366 241.4817,-360 247.4817,-360 247.4817,-360 324.4489,-360 324.4489,-360 330.4489,-360 336.4489,-366 336.4489,-372 336.4489,-372 336.4489,-384 336.4489,-384 336.4489,-390 330.4489,-396 324.4489,-396"/>
<text text-anchor="middle" x="285.9653" y="-380" font-family="sans" font-size="10.00" fill="#000000">trim</text>
<text text-anchor="middle" x="285.9653" y="-370" font-family="sans" font-size="10.00" fill="#000000">sample: Sample_C</text>
</g>
<!-- 13&#45;&gt;12 -->
<g id="edge22" class="edge">
<title>13&#45;&gt;12</title>
<path fill="none" stroke="#c0c0c0" stroke-width="2" d="M291.7692,-359.8314C294.2561,-352.0463 297.2184,-342.7729 299.9778,-334.1347"/>
<polygon fill="#c0c0c0" stroke="#c0c0c0" stroke-width="2" points="303.3743,-335.0041 303.0833,-324.4133 296.7063,-332.874 303.3743,-335.0041"/>
</g>
<!-- 14 -->
<g id="node15" class="node">
<title>14</title>
<path fill="none" stroke="#56a9d8" stroke-width="2" d="M517.1653,-180C517.1653,-180 478.7654,-180 478.7654,-180 472.7654,-180 466.7654,-174 466.7654,-168 466.7654,-168 466.7654,-156 466.7654,-156 466.7654,-150 472.7654,-144 478.7654,-144 478.7654,-144 517.1653,-144 517.1653,-144 523.1653,-144 529.1653,-150 529.1653,-156 529.1653,-156 529.1653,-168 529.1653,-168 529.1653,-174 523.1653,-180 517.1653,-180"/>
<text text-anchor="middle" x="497.9653" y="-159" font-family="sans" font-size="10.00" fill="#000000">metaphlan</text>
</g>
<!-- 14&#45;&gt;1 -->
<g id="edge5" class="edge">
<title>14&#45;&gt;1</title>
<path fill="none" stroke="#c0c0c0" stroke-width="2" d="M529.229,-149.7618C534.4658,-147.7881 539.8567,-145.8028 544.9653,-144 580.9013,-131.3186 621.5818,-118.1401 653.7947,-107.9767"/>
<polygon fill="#c0c0c0" stroke="#c0c0c0" stroke-width="2" points="655.0158,-111.2618 663.5053,-104.9232 652.9159,-104.5841 655.0158,-111.2618"/>
</g>
<!-- 15 -->
<g id="node16" class="node">
<title>15</title>
<path fill="none" stroke="#d8ac56" stroke-width="2" stroke-dasharray="5,2" d="M494.9653,-252C494.9653,-252 464.9653,-252 464.9653,-252 458.9653,-252 452.9653,-246 452.9653,-240 452.9653,-240 452.9653,-228 452.9653,-228 452.9653,-222 458.9653,-216 464.9653,-216 464.9653,-216 494.9653,-216 494.9653,-216 500.9653,-216 506.9653,-222 506.9653,-228 506.9653,-228 506.9653,-240 506.9653,-240 506.9653,-246 500.9653,-252 494.9653,-252"/>
<text text-anchor="middle" x="479.9653" y="-231" font-family="sans" font-size="10.00" fill="#000000">merge</text>
</g>
<!-- 15&#45;&gt;14 -->
<g id="edge23" class="edge">
<title>15&#45;&gt;14</title>
<path fill="none" stroke="#c0c0c0" stroke-width="2" d="M484.5075,-215.8314C486.4537,-208.0463 488.7721,-198.7729 490.9316,-190.1347"/>
<polygon fill="#c0c0c0" stroke="#c0c0c0" stroke-width="2" points="494.3321,-190.9636 493.362,-180.4133 487.5411,-189.2658 494.3321,-190.9636"/>
</g>
<!-- 16 -->
<g id="node17" class="node">
<title>16</title>
<path fill="none" stroke="#d85656" stroke-width="2" stroke-dasharray="5,2" d="M441.9653,-324C441.9653,-324 411.9653,-324 411.9653,-324 405.9653,-324 399.9653,-318 399.9653,-312 399.9653,-312 399.9653,-300 399.9653,-300 399.9653,-294 405.9653,-288 411.9653,-288 411.9653,-288 441.9653,-288 441.9653,-288 447.9653,-288 453.9653,-294 453.9653,-300 453.9653,-300 453.9653,-312 453.9653,-312 453.9653,-318 447.9653,-324 441.9653,-324"/>
<text text-anchor="middle" x="426.9653" y="-303" font-family="sans" font-size="10.00" fill="#000000">hostfilter</text>
</g>
<!-- 16&#45;&gt;15 -->
<g id="edge24" class="edge">
<title>16&#45;&gt;15</title>
<path fill="none" stroke="#c0c0c0" stroke-width="2" d="M440.3395,-287.8314C446.3816,-279.6232 453.6416,-269.7606 460.2874,-260.7323"/>
<polygon fill="#c0c0c0" stroke="#c0c0c0" stroke-width="2" points="463.3016,-262.5415 466.4111,-252.4133 457.6642,-258.3918 463.3016,-262.5415"/>
</g>
<!-- 17 -->
<g id="node18" class="node">
<title>17</title>
<path fill="none" stroke="#56d8a9" stroke-width="2" stroke-dasharray="5,2" d="M442.4489,-396C442.4489,-396 365.4817,-396 365.4817,-396 359.4817,-396 353.4817,-390 353.4817,-384 353.4817,-384 353.4817,-372 353.4817,-372 353.4817,-366 359.4817,-360 365.4817,-360 365.4817,-360 442.4489,-360 442.4489,-360 448.4489,-360 454.4489,-366 454.4489,-372 454.4489,-372 454.4489,-384 454.4489,-384 454.4489,-390 448.4489,-396 442.4489,-396"/>
<text text-anchor="middle" x="403.9653" y="-380" font-family="sans" font-size="10.00" fill="#000000">trim</text>
<text text-anchor="middle" x="403.9653" y="-370" font-family="sans" font-size="10.00" fill="#000000">sample: Sample_D</text>
</g>
<!-- 17&#45;&gt;16 -->
<g id="edge25" class="edge">
<title>17&#45;&gt;16</title>
<path fill="none" stroke="#c0c0c0" stroke-width="2" d="M409.7692,-359.8314C412.2561,-352.0463 415.2184,-342.7729 417.9778,-334.1347"/>
<polygon fill="#c0c0c0" stroke="#c0c0c0" stroke-width="2" points="421.3743,-335.0041 421.0833,-324.4133 414.7063,-332.874 421.3743,-335.0041"/>
</g>
<!-- 18 -->
<g id="node19" class="node">
<title>18</title>
<path fill="none" stroke="#56a9d8" stroke-width="2" d="M604.1653,-180C604.1653,-180 565.7654,-180 565.7654,-180 559.7654,-180 553.7654,-174 553.7654,-168 553.7654,-168 553.7654,-156 553.7654,-156 553.7654,-150 559.7654,-144 565.7654,-144 565.7654,-144 604.1653,-144 604.1653,-144 610.1653,-144 616.1653,-150 616.1653,-156 616.1653,-156 616.1653,-168 616.1653,-168 616.1653,-174 610.1653,-180 604.1653,-180"/>
<text text-anchor="middle" x="584.9653" y="-159" font-family="sans" font-size="10.00" fill="#000000">metaphlan</text>
</g>
<!-- 18&#45;&gt;1 -->
<g id="edge6" class="edge">
<title>18&#45;&gt;1</title>
<path fill="none" stroke="#c0c0c0" stroke-width="2" d="M616.3586,-144.2022C632.8719,-134.8404 653.3164,-123.2498 671.0561,-113.1927"/>
<polygon fill="#c0c0c0" stroke="#c0c0c0" stroke-width="2" points="673.078,-116.0698 680.0511,-108.0931 669.6257,-109.9803 673.078,-116.0698"/>
</g>
<!-- 19 -->
<g id="node20" class="node">
<title>19</title>
<path fill="none" stroke="#d8ac56" stroke-width="2" stroke-dasharray="5,2" d="M586.9653,-252C586.9653,-252 556.9653,-252 556.9653,-252 550.9653,-252 544.9653,-246 544.9653,-240 544.9653,-240 544.9653,-228 544.9653,-228 544.9653,-222 550.9653,-216 556.9653,-216 556.9653,-216 586.9653,-216 586.9653,-216 592.9653,-216 598.9653,-222 598.9653,-228 598.9653,-228 598.9653,-240 598.9653,-240 598.9653,-246 592.9653,-252 586.9653,-252"/>
<text text-anchor="middle" x="571.9653" y="-231" font-family="sans" font-size="10.00" fill="#000000">merge</text>
</g>
<!-- 19&#45;&gt;18 -->
<g id="edge26" class="edge">
<title>19&#45;&gt;18</title>
<path fill="none" stroke="#c0c0c0" stroke-width="2" d="M575.2458,-215.8314C576.6361,-208.131 578.2894,-198.9743 579.8346,-190.4166"/>
<polygon fill="#c0c0c0" stroke="#c0c0c0" stroke-width="2" points="583.3081,-190.8761 581.6407,-180.4133 576.4195,-189.6322 583.3081,-190.8761"/>
</g>
<!-- 20 -->
<g id="node21" class="node">
<title>20</title>
<path fill="none" stroke="#d85656" stroke-width="2" stroke-dasharray="5,2" d="M559.9653,-324C559.9653,-324 529.9653,-324 529.9653,-324 523.9653,-324 517.9653,-318 517.9653,-312 517.9653,-312 517.9653,-300 517.9653,-300 517.9653,-294 523.9653,-288 529.9653,-288 529.9653,-288 559.9653,-288 559.9653,-288 565.9653,-288 571.9653,-294 571.9653,-300 571.9653,-300 571.9653,-312 571.9653,-312 571.9653,-318 565.9653,-324 559.9653,-324"/>
<text text-anchor="middle" x="544.9653" y="-303" font-family="sans" font-size="10.00" fill="#000000">hostfilter</text>
</g>
<!-- 20&#45;&gt;19 -->
<g id="edge27" class="edge">
<title>20&#45;&gt;19</title>
<path fill="none" stroke="#c0c0c0" stroke-width="2" d="M551.7786,-287.8314C554.7297,-279.9617 558.2511,-270.5712 561.5204,-261.8533"/>
<polygon fill="#c0c0c0" stroke="#c0c0c0" stroke-width="2" points="564.8262,-263.0055 565.0604,-252.4133 558.2719,-260.5476 564.8262,-263.0055"/>
</g>
<!-- 21 -->
<g id="node22" class="node">
<title>21</title>
<path fill="none" stroke="#56d8a9" stroke-width="2" stroke-dasharray="5,2" d="M559.896,-396C559.896,-396 484.0346,-396 484.0346,-396 478.0346,-396 472.0346,-390 472.0346,-384 472.0346,-384 472.0346,-372 472.0346,-372 472.0346,-366 478.0346,-360 484.0346,-360 484.0346,-360 559.896,-360 559.896,-360 565.896,-360 571.896,-366 571.896,-372 571.896,-372 571.896,-384 571.896,-384 571.896,-390 565.896,-396 559.896,-396"/>
<text text-anchor="middle" x="521.9653" y="-380" font-family="sans" font-size="10.00" fill="#000000">trim</text>
<text text-anchor="middle" x="521.9653" y="-370" font-family="sans" font-size="10.00" fill="#000000">sample: Sample_E</text>
</g>
<!-- 21&#45;&gt;20 -->
<g id="edge28" class="edge">
<title>21&#45;&gt;20</title>
<path fill="none" stroke="#c0c0c0" stroke-width="2" d="M527.7692,-359.8314C530.2561,-352.0463 533.2184,-342.7729 535.9778,-334.1347"/>
<polygon fill="#c0c0c0" stroke="#c0c0c0" stroke-width="2" points="539.3743,-335.0041 539.0833,-324.4133 532.7063,-332.874 539.3743,-335.0041"/>
</g>
<!-- 22 -->
<g id="node23" class="node">
<title>22</title>
<path fill="none" stroke="#56a9d8" stroke-width="2" d="M688.1653,-180C688.1653,-180 649.7654,-180 649.7654,-180 643.7654,-180 637.7654,-174 637.7654,-168 637.7654,-168 637.7654,-156 637.7654,-156 637.7654,-150 643.7654,-144 649.7654,-144 649.7654,-144 688.1653,-144 688.1653,-144 694.1653,-144 700.1653,-150 700.1653,-156 700.1653,-156 700.1653,-168 700.1653,-168 700.1653,-174 694.1653,-180 688.1653,-180"/>
<text text-anchor="middle" x="668.9653" y="-159" font-family="sans" font-size="10.00" fill="#000000">metaphlan</text>
</g>
<!-- 22&#45;&gt;1 -->
<g id="edge7" class="edge">
<title>22&#45;&gt;1</title>
<path fill="none" stroke="#c0c0c0" stroke-width="2" d="M679.816,-143.8314C684.6676,-135.7079 690.487,-125.9637 695.8333,-117.0118"/>
<polygon fill="#c0c0c0" stroke="#c0c0c0" stroke-width="2" points="698.846,-118.7933 700.9685,-108.4133 692.8362,-115.2041 698.846,-118.7933"/>
</g>
<!-- 23 -->
<g id="node24" class="node">
<title>23</title>
<path fill="none" stroke="#d8ac56" stroke-width="2" stroke-dasharray="5,2" d="M674.9653,-252C674.9653,-252 644.9653,-252 644.9653,-252 638.9653,-252 632.9653,-246 632.9653,-240 632.9653,-240 632.9653,-228 632.9653,-228 632.9653,-222 638.9653,-216 644.9653,-216 644.9653,-216 674.9653,-216 674.9653,-216 680.9653,-216 686.9653,-222 686.9653,-228 686.9653,-228 686.9653,-240 686.9653,-240 686.9653,-246 680.9653,-252 674.9653,-252"/>
<text text-anchor="middle" x="659.9653" y="-231" font-family="sans" font-size="10.00" fill="#000000">merge</text>
</g>
<!-- 23&#45;&gt;22 -->
<g id="edge29" class="edge">
<title>23&#45;&gt;22</title>
<path fill="none" stroke="#c0c0c0" stroke-width="2" d="M662.2364,-215.8314C663.199,-208.131 664.3435,-198.9743 665.4133,-190.4166"/>
<polygon fill="#c0c0c0" stroke="#c0c0c0" stroke-width="2" points="668.8962,-190.7702 666.6637,-180.4133 661.9503,-189.9019 668.8962,-190.7702"/>
</g>
<!-- 24 -->
<g id="node25" class="node">
<title>24</title>
<path fill="none" stroke="#d85656" stroke-width="2" stroke-dasharray="5,2" d="M656.9653,-324C656.9653,-324 626.9653,-324 626.9653,-324 620.9653,-324 614.9653,-318 614.9653,-312 614.9653,-312 614.9653,-300 614.9653,-300 614.9653,-294 620.9653,-288 626.9653,-288 626.9653,-288 656.9653,-288 656.9653,-288 662.9653,-288 668.9653,-294 668.9653,-300 668.9653,-300 668.9653,-312 668.9653,-312 668.9653,-318 662.9653,-324 656.9653,-324"/>
<text text-anchor="middle" x="641.9653" y="-303" font-family="sans" font-size="10.00" fill="#000000">hostfilter</text>
</g>
<!-- 24&#45;&gt;23 -->
<g id="edge30" class="edge">
<title>24&#45;&gt;23</title>
<path fill="none" stroke="#c0c0c0" stroke-width="2" d="M646.5075,-287.8314C648.4537,-280.0463 650.7721,-270.7729 652.9316,-262.1347"/>
<polygon fill="#c0c0c0" stroke="#c0c0c0" stroke-width="2" points="656.3321,-262.9636 655.362,-252.4133 649.5411,-261.2658 656.3321,-262.9636"/>
</g>
<!-- 25 -->
<g id="node26" class="node">
<title>25</title>
<path fill="none" stroke="#56d8a9" stroke-width="2" stroke-dasharray="5,2" d="M677.8352,-396C677.8352,-396 602.0955,-396 602.0955,-396 596.0955,-396 590.0955,-390 590.0955,-384 590.0955,-384 590.0955,-372 590.0955,-372 590.0955,-366 596.0955,-360 602.0955,-360 602.0955,-360 677.8352,-360 677.8352,-360 683.8352,-360 689.8352,-366 689.8352,-372 689.8352,-372 689.8352,-384 689.8352,-384 689.8352,-390 683.8352,-396 677.8352,-396"/>
<text text-anchor="middle" x="639.9653" y="-380" font-family="sans" font-size="10.00" fill="#000000">trim</text>
<text text-anchor="middle" x="639.9653" y="-370" font-family="sans" font-size="10.00" fill="#000000">sample: Sample_F</text>
</g>
<!-- 25&#45;&gt;24 -->
<g id="edge31" class="edge">
<title>25&#45;&gt;24</title>
<path fill="none" stroke="#c0c0c0" stroke-width="2" d="M640.47,-359.8314C640.6839,-352.131 640.9383,-342.9743 641.176,-334.4166"/>
<polygon fill="#c0c0c0" stroke="#c0c0c0" stroke-width="2" points="644.6747,-334.5066 641.4539,-324.4133 637.6774,-334.3122 644.6747,-334.5066"/>
</g>
<!-- 26 -->
<g id="node27" class="node">
<title>26</title>
<path fill="none" stroke="#56a9d8" stroke-width="2" d="M774.1653,-180C774.1653,-180 735.7654,-180 735.7654,-180 729.7654,-180 723.7654,-174 723.7654,-168 723.7654,-168 723.7654,-156 723.7654,-156 723.7654,-150 729.7654,-144 735.7654,-144 735.7654,-144 774.1653,-144 774.1653,-144 780.1653,-144 786.1653,-150 786.1653,-156 786.1653,-156 786.1653,-168 786.1653,-168 786.1653,-174 780.1653,-180 774.1653,-180"/>
<text text-anchor="middle" x="754.9653" y="-159" font-family="sans" font-size="10.00" fill="#000000">metaphlan</text>
</g>
<!-- 26&#45;&gt;1 -->
<g id="edge8" class="edge">
<title>26&#45;&gt;1</title>
<path fill="none" stroke="#c0c0c0" stroke-width="2" d="M744.1146,-143.8314C739.2631,-135.7079 733.4437,-125.9637 728.0974,-117.0118"/>
<polygon fill="#c0c0c0" stroke="#c0c0c0" stroke-width="2" points="731.0945,-115.2041 722.9621,-108.4133 725.0847,-118.7933 731.0945,-115.2041"/>
</g>
<!-- 27 -->
<g id="node28" class="node">
<title>27</title>
<path fill="none" stroke="#d8ac56" stroke-width="2" stroke-dasharray="5,2" d="M770.9653,-252C770.9653,-252 740.9653,-252 740.9653,-252 734.9653,-252 728.9653,-246 728.9653,-240 728.9653,-240 728.9653,-228 728.9653,-228 728.9653,-222 734.9653,-216 740.9653,-216 740.9653,-216 770.9653,-216 770.9653,-216 776.9653,-216 782.9653,-222 782.9653,-228 782.9653,-228 782.9653,-240 782.9653,-240 782.9653,-246 776.9653,-252 770.9653,-252"/>
<text text-anchor="middle" x="755.9653" y="-231" font-family="sans" font-size="10.00" fill="#000000">merge</text>
</g>
<!-- 27&#45;&gt;26 -->
<g id="edge32" class="edge">
<title>27&#45;&gt;26</title>
<path fill="none" stroke="#c0c0c0" stroke-width="2" d="M755.713,-215.8314C755.606,-208.131 755.4789,-198.9743 755.36,-190.4166"/>
<polygon fill="#c0c0c0" stroke="#c0c0c0" stroke-width="2" points="758.8597,-190.3637 755.2211,-180.4133 751.8604,-190.4609 758.8597,-190.3637"/>
</g>
<!-- 28 -->
<g id="node29" class="node">
<title>28</title>
<path fill="none" stroke="#d85656" stroke-width="2" stroke-dasharray="5,2" d="M771.9653,-324C771.9653,-324 741.9653,-324 741.9653,-324 735.9653,-324 729.9653,-318 729.9653,-312 729.9653,-312 729.9653,-300 729.9653,-300 729.9653,-294 735.9653,-288 741.9653,-288 741.9653,-288 771.9653,-288 771.9653,-288 777.9653,-288 783.9653,-294 783.9653,-300 783.9653,-300 783.9653,-312 783.9653,-312 783.9653,-318 777.9653,-324 771.9653,-324"/>
<text text-anchor="middle" x="756.9653" y="-303" font-family="sans" font-size="10.00" fill="#000000">hostfilter</text>
</g>
<!-- 28&#45;&gt;27 -->
<g id="edge33" class="edge">
<title>28&#45;&gt;27</title>
<path fill="none" stroke="#c0c0c0" stroke-width="2" d="M756.713,-287.8314C756.606,-280.131 756.4789,-270.9743 756.36,-262.4166"/>
<polygon fill="#c0c0c0" stroke="#c0c0c0" stroke-width="2" points="759.8597,-262.3637 756.2211,-252.4133 752.8604,-262.4609 759.8597,-262.3637"/>
</g>
<!-- 29 -->
<g id="node30" class="node">
<title>29</title>
<path fill="none" stroke="#56d8a9" stroke-width="2" stroke-dasharray="5,2" d="M796.5044,-396C796.5044,-396 719.4263,-396 719.4263,-396 713.4263,-396 707.4263,-390 707.4263,-384 707.4263,-384 707.4263,-372 707.4263,-372 707.4263,-366 713.4263,-360 719.4263,-360 719.4263,-360 796.5044,-360 796.5044,-360 802.5044,-360 808.5044,-366 808.5044,-372 808.5044,-372 808.5044,-384 808.5044,-384 808.5044,-390 802.5044,-396 796.5044,-396"/>
<text text-anchor="middle" x="757.9653" y="-380" font-family="sans" font-size="10.00" fill="#000000">trim</text>
<text text-anchor="middle" x="757.9653" y="-370" font-family="sans" font-size="10.00" fill="#000000">sample: Sample_G</text>
</g>
<!-- 29&#45;&gt;28 -->
<g id="edge34" class="edge">
<title>29&#45;&gt;28</title>
<path fill="none" stroke="#c0c0c0" stroke-width="2" d="M757.713,-359.8314C757.606,-352.131 757.4789,-342.9743 757.36,-334.4166"/>
<polygon fill="#c0c0c0" stroke="#c0c0c0" stroke-width="2" points="760.8597,-334.3637 757.2211,-324.4133 753.8604,-334.4609 760.8597,-334.3637"/>
</g>
<!-- 30 -->
<g id="node31" class="node">
<title>30</title>
<path fill="none" stroke="#56a9d8" stroke-width="2" d="M876.1653,-180C876.1653,-180 837.7654,-180 837.7654,-180 831.7654,-180 825.7654,-174 825.7654,-168 825.7654,-168 825.7654,-156 825.7654,-156 825.7654,-150 831.7654,-144 837.7654,-144 837.7654,-144 876.1653,-144 876.1653,-144 882.1653,-144 888.1653,-150 888.1653,-156 888.1653,-156 888.1653,-168 888.1653,-168 888.1653,-174 882.1653,-180 876.1653,-180"/>
<text text-anchor="middle" x="856.9653" y="-159" font-family="sans" font-size="10.00" fill="#000000">metaphlan</text>
</g>
<!-- 30&#45;&gt;1 -->
<g id="edge9" class="edge">
<title>30&#45;&gt;1</title>
<path fill="none" stroke="#c0c0c0" stroke-width="2" d="M825.5025,-146.3771C805.606,-136.4975 779.5613,-123.5649 757.4361,-112.5786"/>
<polygon fill="#c0c0c0" stroke="#c0c0c0" stroke-width="2" points="758.7364,-109.3166 748.2232,-108.0039 755.6232,-115.5862 758.7364,-109.3166"/>
</g>
<!-- 31 -->
<g id="node32" class="node">
<title>31</title>
<path fill="none" stroke="#d8ac56" stroke-width="2" stroke-dasharray="5,2" d="M881.9653,-252C881.9653,-252 851.9653,-252 851.9653,-252 845.9653,-252 839.9653,-246 839.9653,-240 839.9653,-240 839.9653,-228 839.9653,-228 839.9653,-222 845.9653,-216 851.9653,-216 851.9653,-216 881.9653,-216 881.9653,-216 887.9653,-216 893.9653,-222 893.9653,-228 893.9653,-228 893.9653,-240 893.9653,-240 893.9653,-246 887.9653,-252 881.9653,-252"/>
<text text-anchor="middle" x="866.9653" y="-231" font-family="sans" font-size="10.00" fill="#000000">merge</text>
</g>
<!-- 31&#45;&gt;30 -->
<g id="edge35" class="edge">
<title>31&#45;&gt;30</title>
<path fill="none" stroke="#c0c0c0" stroke-width="2" d="M864.4419,-215.8314C863.3724,-208.131 862.1007,-198.9743 860.9121,-190.4166"/>
<polygon fill="#c0c0c0" stroke="#c0c0c0" stroke-width="2" points="864.3652,-189.8367 859.5227,-180.4133 857.4318,-190.7997 864.3652,-189.8367"/>
</g>
<!-- 32 -->
<g id="node33" class="node">
<title>32</title>
<path fill="none" stroke="#d85656" stroke-width="2" stroke-dasharray="5,2" d="M886.9653,-324C886.9653,-324 856.9653,-324 856.9653,-324 850.9653,-324 844.9653,-318 844.9653,-312 844.9653,-312 844.9653,-300 844.9653,-300 844.9653,-294 850.9653,-288 856.9653,-288 856.9653,-288 886.9653,-288 886.9653,-288 892.9653,-288 898.9653,-294 898.9653,-300 898.9653,-300 898.9653,-312 898.9653,-312 898.9653,-318 892.9653,-324 886.9653,-324"/>
<text text-anchor="middle" x="871.9653" y="-303" font-family="sans" font-size="10.00" fill="#000000">hostfilter</text>
</g>
<!-- 32&#45;&gt;31 -->
<g id="edge36" class="edge">
<title>32&#45;&gt;31</title>
<path fill="none" stroke="#c0c0c0" stroke-width="2" d="M870.7036,-287.8314C870.1689,-280.131 869.533,-270.9743 868.9387,-262.4166"/>
<polygon fill="#c0c0c0" stroke="#c0c0c0" stroke-width="2" points="872.4285,-262.1467 868.244,-252.4133 865.4453,-262.6317 872.4285,-262.1467"/>
</g>
<!-- 33 -->
<g id="node34" class="node">
<title>33</title>
<path fill="none" stroke="#56d8a9" stroke-width="2" stroke-dasharray="5,2" d="M915.4489,-396C915.4489,-396 838.4817,-396 838.4817,-396 832.4817,-396 826.4817,-390 826.4817,-384 826.4817,-384 826.4817,-372 826.4817,-372 826.4817,-366 832.4817,-360 838.4817,-360 838.4817,-360 915.4489,-360 915.4489,-360 921.4489,-360 927.4489,-366 927.4489,-372 927.4489,-372 927.4489,-384 927.4489,-384 927.4489,-390 921.4489,-396 915.4489,-396"/>
<text text-anchor="middle" x="876.9653" y="-380" font-family="sans" font-size="10.00" fill="#000000">trim</text>
<text text-anchor="middle" x="876.9653" y="-370" font-family="sans" font-size="10.00" fill="#000000">sample: Sample_H</text>
</g>
<!-- 33&#45;&gt;32 -->
<g id="edge37" class="edge">
<title>33&#45;&gt;32</title>
<path fill="none" stroke="#c0c0c0" stroke-width="2" d="M875.7036,-359.8314C875.1689,-352.131 874.533,-342.9743 873.9387,-334.4166"/>
<polygon fill="#c0c0c0" stroke="#c0c0c0" stroke-width="2" points="877.4285,-334.1467 873.244,-324.4133 870.4453,-334.6317 877.4285,-334.1467"/>
</g>
<!-- 34 -->
<g id="node35" class="node">
<title>34</title>
<path fill="none" stroke="#56a9d8" stroke-width="2" d="M985.1653,-180C985.1653,-180 946.7654,-180 946.7654,-180 940.7654,-180 934.7654,-174 934.7654,-168 934.7654,-168 934.7654,-156 934.7654,-156 934.7654,-150 940.7654,-144 946.7654,-144 946.7654,-144 985.1653,-144 985.1653,-144 991.1653,-144 997.1653,-150 997.1653,-156 997.1653,-156 997.1653,-168 997.1653,-168 997.1653,-174 991.1653,-180 985.1653,-180"/>
<text text-anchor="middle" x="965.9653" y="-159" font-family="sans" font-size="10.00" fill="#000000">metaphlan</text>
</g>
<!-- 34&#45;&gt;1 -->
<g id="edge10" class="edge">
<title>34&#45;&gt;1</title>
<path fill="none" stroke="#c0c0c0" stroke-width="2" d="M934.5652,-153.0992C893.6262,-141.4944 821.229,-120.9724 770.1326,-106.4883"/>
<polygon fill="#c0c0c0" stroke="#c0c0c0" stroke-width="2" points="770.7884,-103.0364 760.2129,-103.6765 768.8793,-109.7711 770.7884,-103.0364"/>
</g>
<!-- 35 -->
<g id="node36" class="node">
<title>35</title>
<path fill="none" stroke="#d8ac56" stroke-width="2" stroke-dasharray="5,2" d="M993.9653,-252C993.9653,-252 963.9653,-252 963.9653,-252 957.9653,-252 951.9653,-246 951.9653,-240 951.9653,-240 951.9653,-228 951.9653,-228 951.9653,-222 957.9653,-216 963.9653,-216 963.9653,-216 993.9653,-216 993.9653,-216 999.9653,-216 1005.9653,-222 1005.9653,-228 1005.9653,-228 1005.9653,-240 1005.9653,-240 1005.9653,-246 999.9653,-252 993.9653,-252"/>
<text text-anchor="middle" x="978.9653" y="-231" font-family="sans" font-size="10.00" fill="#000000">merge</text>
</g>
<!-- 35&#45;&gt;34 -->
<g id="edge38" class="edge">
<title>35&#45;&gt;34</title>
<path fill="none" stroke="#c0c0c0" stroke-width="2" d="M975.6849,-215.8314C974.2945,-208.131 972.6413,-198.9743 971.0961,-190.4166"/>
<polygon fill="#c0c0c0" stroke="#c0c0c0" stroke-width="2" points="974.5112,-189.6322 969.2899,-180.4133 967.6225,-190.8761 974.5112,-189.6322"/>
</g>
<!-- 36 -->
<g id="node37" class="node">
<title>36</title>
<path fill="none" stroke="#d85656" stroke-width="2" stroke-dasharray="5,2" d="M1000.9653,-324C1000.9653,-324 970.9653,-324 970.9653,-324 964.9653,-324 958.9653,-318 958.9653,-312 958.9653,-312 958.9653,-300 958.9653,-300 958.9653,-294 964.9653,-288 970.9653,-288 970.9653,-288 1000.9653,-288 1000.9653,-288 1006.9653,-288 1012.9653,-294 1012.9653,-300 1012.9653,-300 1012.9653,-312 1012.9653,-312 1012.9653,-318 1006.9653,-324 1000.9653,-324"/>
<text text-anchor="middle" x="985.9653" y="-303" font-family="sans" font-size="10.00" fill="#000000">hostfilter</text>
</g>
<!-- 36&#45;&gt;35 -->
<g id="edge39" class="edge">
<title>36&#45;&gt;35</title>
<path fill="none" stroke="#c0c0c0" stroke-width="2" d="M984.1989,-287.8314C983.4503,-280.131 982.5601,-270.9743 981.7281,-262.4166"/>
<polygon fill="#c0c0c0" stroke="#c0c0c0" stroke-width="2" points="985.2068,-262.0276 980.7555,-252.4133 978.2397,-262.7051 985.2068,-262.0276"/>
</g>
<!-- 37 -->
<g id="node38" class="node">
<title>37</title>
<path fill="none" stroke="#56d8a9" stroke-width="2" stroke-dasharray="5,2" d="M1029.0044,-396C1029.0044,-396 956.9263,-396 956.9263,-396 950.9263,-396 944.9263,-390 944.9263,-384 944.9263,-384 944.9263,-372 944.9263,-372 944.9263,-366 950.9263,-360 956.9263,-360 956.9263,-360 1029.0044,-360 1029.0044,-360 1035.0044,-360 1041.0044,-366 1041.0044,-372 1041.0044,-372 1041.0044,-384 1041.0044,-384 1041.0044,-390 1035.0044,-396 1029.0044,-396"/>
<text text-anchor="middle" x="992.9653" y="-380" font-family="sans" font-size="10.00" fill="#000000">trim</text>
<text text-anchor="middle" x="992.9653" y="-370" font-family="sans" font-size="10.00" fill="#000000">sample: Sample_I</text>
</g>
<!-- 37&#45;&gt;36 -->
<g id="edge40" class="edge">
<title>37&#45;&gt;36</title>
<path fill="none" stroke="#c0c0c0" stroke-width="2" d="M991.1989,-359.8314C990.4503,-352.131 989.5601,-342.9743 988.7281,-334.4166"/>
<polygon fill="#c0c0c0" stroke="#c0c0c0" stroke-width="2" points="992.2068,-334.0276 987.7555,-324.4133 985.2397,-334.7051 992.2068,-334.0276"/>
</g>
<!-- 38 -->
<g id="node39" class="node">
<title>38</title>
<path fill="none" stroke="#56a9d8" stroke-width="2" d="M1097.1653,-180C1097.1653,-180 1058.7654,-180 1058.7654,-180 1052.7654,-180 1046.7654,-174 1046.7654,-168 1046.7654,-168 1046.7654,-156 1046.7654,-156 1046.7654,-150 1052.7654,-144 1058.7654,-144 1058.7654,-144 1097.1653,-144 1097.1653,-144 1103.1653,-144 1109.1653,-150 1109.1653,-156 1109.1653,-156 1109.1653,-168 1109.1653,-168 1109.1653,-174 1103.1653,-180 1097.1653,-180"/>
<text text-anchor="middle" x="1077.9653" y="-159" font-family="sans" font-size="10.00" fill="#000000">metaphlan</text>
</g>
<!-- 38&#45;&gt;1 -->
<g id="edge11" class="edge">
<title>38&#45;&gt;1</title>
<path fill="none" stroke="#c0c0c0" stroke-width="2" d="M1046.5237,-153.6805C1033.952,-150.4744 1019.3136,-146.8913 1005.9653,-144 924.5777,-126.3707 829.7066,-109.6253 770.2333,-99.5824"/>
<polygon fill="#c0c0c0" stroke="#c0c0c0" stroke-width="2" points="770.7184,-96.1149 760.2764,-97.9078 769.5574,-103.018 770.7184,-96.1149"/>
</g>
<!-- 39 -->
<g id="node40" class="node">
<title>39</title>
<path fill="none" stroke="#d8ac56" stroke-width="2" stroke-dasharray="5,2" d="M1107.9653,-252C1107.9653,-252 1077.9653,-252 1077.9653,-252 1071.9653,-252 1065.9653,-246 1065.9653,-240 1065.9653,-240 1065.9653,-228 1065.9653,-228 1065.9653,-222 1071.9653,-216 1077.9653,-216 1077.9653,-216 1107.9653,-216 1107.9653,-216 1113.9653,-216 1119.9653,-222 1119.9653,-228 1119.9653,-228 1119.9653,-240 1119.9653,-240 1119.9653,-246 1113.9653,-252 1107.9653,-252"/>
<text text-anchor="middle" x="1092.9653" y="-231" font-family="sans" font-size="10.00" fill="#000000">merge</text>
</g>
<!-- 39&#45;&gt;38 -->
<g id="edge41" class="edge">
<title>39&#45;&gt;38</title>
<path fill="none" stroke="#c0c0c0" stroke-width="2" d="M1089.1802,-215.8314C1087.5759,-208.131 1085.6683,-198.9743 1083.8855,-190.4166"/>
<polygon fill="#c0c0c0" stroke="#c0c0c0" stroke-width="2" points="1087.2675,-189.4892 1081.8014,-180.4133 1080.4146,-190.9169 1087.2675,-189.4892"/>
</g>
<!-- 40 -->
<g id="node41" class="node">
<title>40</title>
<path fill="none" stroke="#d85656" stroke-width="2" stroke-dasharray="5,2" d="M1114.9653,-324C1114.9653,-324 1084.9653,-324 1084.9653,-324 1078.9653,-324 1072.9653,-318 1072.9653,-312 1072.9653,-312 1072.9653,-300 1072.9653,-300 1072.9653,-294 1078.9653,-288 1084.9653,-288 1084.9653,-288 1114.9653,-288 1114.9653,-288 1120.9653,-288 1126.9653,-294 1126.9653,-300 1126.9653,-300 1126.9653,-312 1126.9653,-312 1126.9653,-318 1120.9653,-324 1114.9653,-324"/>
<text text-anchor="middle" x="1099.9653" y="-303" font-family="sans" font-size="10.00" fill="#000000">hostfilter</text>
</g>
<!-- 40&#45;&gt;39 -->
<g id="edge42" class="edge">
<title>40&#45;&gt;39</title>
<path fill="none" stroke="#c0c0c0" stroke-width="2" d="M1098.1989,-287.8314C1097.4503,-280.131 1096.5601,-270.9743 1095.7281,-262.4166"/>
<polygon fill="#c0c0c0" stroke="#c0c0c0" stroke-width="2" points="1099.2068,-262.0276 1094.7555,-252.4133 1092.2397,-262.7051 1099.2068,-262.0276"/>
</g>
<!-- 41 -->
<g id="node42" class="node">
<title>41</title>
<path fill="none" stroke="#56d8a9" stroke-width="2" stroke-dasharray="5,2" d="M1145.2264,-396C1145.2264,-396 1070.7042,-396 1070.7042,-396 1064.7042,-396 1058.7042,-390 1058.7042,-384 1058.7042,-384 1058.7042,-372 1058.7042,-372 1058.7042,-366 1064.7042,-360 1070.7042,-360 1070.7042,-360 1145.2264,-360 1145.2264,-360 1151.2264,-360 1157.2264,-366 1157.2264,-372 1157.2264,-372 1157.2264,-384 1157.2264,-384 1157.2264,-390 1151.2264,-396 1145.2264,-396"/>
<text text-anchor="middle" x="1107.9653" y="-380" font-family="sans" font-size="10.00" fill="#000000">trim</text>
<text text-anchor="middle" x="1107.9653" y="-370" font-family="sans" font-size="10.00" fill="#000000">sample: Sample_J</text>
</g>
<!-- 41&#45;&gt;40 -->
<g id="edge43" class="edge">
<title>41&#45;&gt;40</title>
<path fill="none" stroke="#c0c0c0" stroke-width="2" d="M1105.9466,-359.8314C1105.091,-352.131 1104.0736,-342.9743 1103.1227,-334.4166"/>
<polygon fill="#c0c0c0" stroke="#c0c0c0" stroke-width="2" points="1106.5942,-333.9656 1102.0113,-324.4133 1099.6371,-334.7386 1106.5942,-333.9656"/>
</g>
<!-- 42 -->
<g id="node43" class="node">
<title>42</title>
<path fill="none" stroke="#56a9d8" stroke-width="2" d="M1212.1653,-180C1212.1653,-180 1173.7654,-180 1173.7654,-180 1167.7654,-180 1161.7654,-174 1161.7654,-168 1161.7654,-168 1161.7654,-156 1161.7654,-156 1161.7654,-150 1167.7654,-144 1173.7654,-144 1173.7654,-144 1212.1653,-144 1212.1653,-144 1218.1653,-144 1224.1653,-150 1224.1653,-156 1224.1653,-156 1224.1653,-168 1224.1653,-168 1224.1653,-174 1218.1653,-180 1212.1653,-180"/>
<text text-anchor="middle" x="1192.9653" y="-159" font-family="sans" font-size="10.00" fill="#000000">metaphlan</text>
</g>
<!-- 42&#45;&gt;1 -->
<g id="edge12" class="edge">
<title>42&#45;&gt;1</title>
<path fill="none" stroke="#c0c0c0" stroke-width="2" d="M1161.7377,-153.7422C1148.3304,-150.3955 1132.4466,-146.6933 1117.9653,-144 995.1962,-121.1664 849.8053,-104.2484 770.6037,-95.8751"/>
<polygon fill="#c0c0c0" stroke="#c0c0c0" stroke-width="2" points="770.6546,-92.3614 760.344,-94.7992 769.9244,-99.3232 770.6546,-92.3614"/>
</g>
<!-- 43 -->
<g id="node44" class="node">
<title>43</title>
<path fill="none" stroke="#d8ac56" stroke-width="2" stroke-dasharray="5,2" d="M1223.9653,-252C1223.9653,-252 1193.9653,-252 1193.9653,-252 1187.9653,-252 1181.9653,-246 1181.9653,-240 1181.9653,-240 1181.9653,-228 1181.9653,-228 1181.9653,-222 1187.9653,-216 1193.9653,-216 1193.9653,-216 1223.9653,-216 1223.9653,-216 1229.9653,-216 1235.9653,-222 1235.9653,-228 1235.9653,-228 1235.9653,-240 1235.9653,-240 1235.9653,-246 1229.9653,-252 1223.9653,-252"/>
<text text-anchor="middle" x="1208.9653" y="-231" font-family="sans" font-size="10.00" fill="#000000">merge</text>
</g>
<!-- 43&#45;&gt;42 -->
<g id="edge44" class="edge">
<title>43&#45;&gt;42</title>
<path fill="none" stroke="#c0c0c0" stroke-width="2" d="M1204.9279,-215.8314C1203.2167,-208.131 1201.1819,-198.9743 1199.2801,-190.4166"/>
<polygon fill="#c0c0c0" stroke="#c0c0c0" stroke-width="2" points="1202.6432,-189.4159 1197.0572,-180.4133 1195.8099,-190.9344 1202.6432,-189.4159"/>
</g>
<!-- 44 -->
<g id="node45" class="node">
<title>44</title>
<path fill="none" stroke="#d85656" stroke-width="2" stroke-dasharray="5,2" d="M1231.9653,-324C1231.9653,-324 1201.9653,-324 1201.9653,-324 1195.9653,-324 1189.9653,-318 1189.9653,-312 1189.9653,-312 1189.9653,-300 1189.9653,-300 1189.9653,-294 1195.9653,-288 1201.9653,-288 1201.9653,-288 1231.9653,-288 1231.9653,-288 1237.9653,-288 1243.9653,-294 1243.9653,-300 1243.9653,-300 1243.9653,-312 1243.9653,-312 1243.9653,-318 1237.9653,-324 1231.9653,-324"/>
<text text-anchor="middle" x="1216.9653" y="-303" font-family="sans" font-size="10.00" fill="#000000">hostfilter</text>
</g>
<!-- 44&#45;&gt;43 -->
<g id="edge45" class="edge">
<title>44&#45;&gt;43</title>
<path fill="none" stroke="#c0c0c0" stroke-width="2" d="M1214.9466,-287.8314C1214.091,-280.131 1213.0736,-270.9743 1212.1227,-262.4166"/>
<polygon fill="#c0c0c0" stroke="#c0c0c0" stroke-width="2" points="1215.5942,-261.9656 1211.0113,-252.4133 1208.6371,-262.7386 1215.5942,-261.9656"/>
</g>
<!-- 45 -->
<g id="node46" class="node">
<title>45</title>
<path fill="none" stroke="#56d8a9" stroke-width="2" stroke-dasharray="5,2" d="M1262.896,-396C1262.896,-396 1187.0346,-396 1187.0346,-396 1181.0346,-396 1175.0346,-390 1175.0346,-384 1175.0346,-384 1175.0346,-372 1175.0346,-372 1175.0346,-366 1181.0346,-360 1187.0346,-360 1187.0346,-360 1262.896,-360 1262.896,-360 1268.896,-360 1274.896,-366 1274.896,-372 1274.896,-372 1274.896,-384 1274.896,-384 1274.896,-390 1268.896,-396 1262.896,-396"/>
<text text-anchor="middle" x="1224.9653" y="-380" font-family="sans" font-size="10.00" fill="#000000">trim</text>
<text text-anchor="middle" x="1224.9653" y="-370" font-family="sans" font-size="10.00" fill="#000000">sample: Sample_K</text>
</g>
<!-- 45&#45;&gt;44 -->
<g id="edge46" class="edge">
<title>45&#45;&gt;44</title>
<path fill="none" stroke="#c0c0c0" stroke-width="2" d="M1222.9466,-359.8314C1222.091,-352.131 1221.0736,-342.9743 1220.1227,-334.4166"/>
<polygon fill="#c0c0c0" stroke="#c0c0c0" stroke-width="2" points="1223.5942,-333.9656 1219.0113,-324.4133 1216.6371,-334.7386 1223.5942,-333.9656"/>
</g>
<!-- 46 -->
<g id="node47" class="node">
<title>46</title>
<path fill="none" stroke="#56a9d8" stroke-width="2" d="M1328.1653,-180C1328.1653,-180 1289.7654,-180 1289.7654,-180 1283.7654,-180 1277.7654,-174 1277.7654,-168 1277.7654,-168 1277.7654,-156 1277.7654,-156 1277.7654,-150 1283.7654,-144 1289.7654,-144 1289.7654,-144 1328.1653,-144 1328.1653,-144 1334.1653,-144 1340.1653,-150 1340.1653,-156 1340.1653,-156 1340.1653,-168 1340.1653,-168 1340.1653,-174 1334.1653,-180 1328.1653,-180"/>
<text text-anchor="middle" x="1308.9653" y="-159" font-family="sans" font-size="10.00" fill="#000000">metaphlan</text>
</g>
<!-- 46&#45;&gt;1 -->
<g id="edge13" class="edge">
<title>46&#45;&gt;1</title>
<path fill="none" stroke="#c0c0c0" stroke-width="2" d="M1277.7216,-153.6386C1264.0638,-150.2336 1247.8046,-146.5155 1232.9653,-144 1066.4434,-115.7722 867.309,-100.0797 770.537,-93.5917"/>
<polygon fill="#c0c0c0" stroke="#c0c0c0" stroke-width="2" points="770.5823,-90.0871 760.3729,-92.919 770.1199,-97.0718 770.5823,-90.0871"/>
</g>
<!-- 47 -->
<g id="node48" class="node">
<title>47</title>
<path fill="none" stroke="#d8ac56" stroke-width="2" stroke-dasharray="5,2" d="M1339.9653,-252C1339.9653,-252 1309.9653,-252 1309.9653,-252 1303.9653,-252 1297.9653,-246 1297.9653,-240 1297.9653,-240 1297.9653,-228 1297.9653,-228 1297.9653,-222 1303.9653,-216 1309.9653,-216 1309.9653,-216 1339.9653,-216 1339.9653,-216 1345.9653,-216 1351.9653,-222 1351.9653,-228 1351.9653,-228 1351.9653,-240 1351.9653,-240 1351.9653,-246 1345.9653,-252 1339.9653,-252"/>
<text text-anchor="middle" x="1324.9653" y="-231" font-family="sans" font-size="10.00" fill="#000000">merge</text>
</g>
<!-- 47&#45;&gt;46 -->
<g id="edge47" class="edge">
<title>47&#45;&gt;46</title>
<path fill="none" stroke="#c0c0c0" stroke-width="2" d="M1320.9279,-215.8314C1319.2167,-208.131 1317.1819,-198.9743 1315.2801,-190.4166"/>
<polygon fill="#c0c0c0" stroke="#c0c0c0" stroke-width="2" points="1318.6432,-189.4159 1313.0572,-180.4133 1311.8099,-190.9344 1318.6432,-189.4159"/>
</g>
<!-- 48 -->
<g id="node49" class="node">
<title>48</title>
<path fill="none" stroke="#d85656" stroke-width="2" stroke-dasharray="5,2" d="M1347.9653,-324C1347.9653,-324 1317.9653,-324 1317.9653,-324 1311.9653,-324 1305.9653,-318 1305.9653,-312 1305.9653,-312 1305.9653,-300 1305.9653,-300 1305.9653,-294 1311.9653,-288 1317.9653,-288 1317.9653,-288 1347.9653,-288 1347.9653,-288 1353.9653,-288 1359.9653,-294 1359.9653,-300 1359.9653,-300 1359.9653,-312 1359.9653,-312 1359.9653,-318 1353.9653,-324 1347.9653,-324"/>
<text text-anchor="middle" x="1332.9653" y="-303" font-family="sans" font-size="10.00" fill="#000000">hostfilter</text>
</g>
<!-- 48&#45;&gt;47 -->
<g id="edge48" class="edge">
<title>48&#45;&gt;47</title>
<path fill="none" stroke="#c0c0c0" stroke-width="2" d="M1330.9466,-287.8314C1330.091,-280.131 1329.0736,-270.9743 1328.1227,-262.4166"/>
<polygon fill="#c0c0c0" stroke="#c0c0c0" stroke-width="2" points="1331.5942,-261.9656 1327.0113,-252.4133 1324.6371,-262.7386 1331.5942,-261.9656"/>
</g>
<!-- 49 -->
<g id="node50" class="node">
<title>49</title>
<path fill="none" stroke="#56d8a9" stroke-width="2" stroke-dasharray="5,2" d="M1379.2878,-396C1379.2878,-396 1304.6429,-396 1304.6429,-396 1298.6429,-396 1292.6429,-390 1292.6429,-384 1292.6429,-384 1292.6429,-372 1292.6429,-372 1292.6429,-366 1298.6429,-360 1304.6429,-360 1304.6429,-360 1379.2878,-360 1379.2878,-360 1385.2878,-360 1391.2878,-366 1391.2878,-372 1391.2878,-372 1391.2878,-384 1391.2878,-384 1391.2878,-390 1385.2878,-396 1379.2878,-396"/>
<text text-anchor="middle" x="1341.9653" y="-380" font-family="sans" font-size="10.00" fill="#000000">trim</text>
<text text-anchor="middle" x="1341.9653" y="-370" font-family="sans" font-size="10.00" fill="#000000">sample: Sample_L</text>
</g>
<!-- 49&#45;&gt;48 -->
<g id="edge49" class="edge">
<title>49&#45;&gt;48</title>
<path fill="none" stroke="#c0c0c0" stroke-width="2" d="M1339.6943,-359.8314C1338.7317,-352.131 1337.5871,-342.9743 1336.5174,-334.4166"/>
<polygon fill="#c0c0c0" stroke="#c0c0c0" stroke-width="2" points="1339.9804,-333.9019 1335.267,-324.4133 1333.0345,-334.7702 1339.9804,-333.9019"/>
</g>
</g>
</svg>
